<svg xmlns="http://www.w3.org/2000/svg" viewBox="-20 -20 1040 1090" width="1040" height="1090">
<rect x="-20" y="-20" width="1040" height="1090" fill="#FFFFFF"/>
<path d="M536.65 558.81C536.65 558.81 1000 558.81 1000 558.81C1000 558.81 1000 854.01 1000 854.01C1000 854.01 536.57 1049.18 536.57 1049.18C536.57 1049.18 536.57 558.72 536.57 558.72C536.57 558.72 536.65 558.81 536.65 558.81ZM1000 490.46C1000 490.46 1000 195.25 1000 195.25C1000 195.25 536.65 0 536.65 0C536.65 0 536.65 490.2 536.65 490.2C536.65 490.2 1000 490.46 1000 490.46ZM0 195.25C0 195.25 0 854.1 0 854.1C0 854.1 463.43 1049.27 463.43 1049.27C463.43 1049.27 463.43 0 463.43 0C463.43 0 0 195.25 0 195.25Z" fill="#26D07C" fill-opacity="0.25" stroke="#222222" stroke-width="1"/>
<path d="M536.66 490.03C536.66 490.03 1000 490.29 1000 490.29C1000 490.29 1000 195.19 1000 195.19C1000 195.19 536.66 0 536.66 0C536.66 0 536.66 490.03 536.66 490.03ZM0 195.19C0 195.19 0 853.8 0 853.8C0 853.8 463.43 1048.9 463.43 1048.9C463.43 1048.9 463.43 0 463.43 0C463.43 0 0 195.19 0 195.19ZM536.57 1048.82C536.57 1048.82 1000 853.72 1000 853.72C1000 853.72 1000 558.61 1000 558.61C1000 558.61 536.66 558.61 536.66 558.61C536.66 558.61 536.57 558.53 536.57 558.53C536.57 558.53 536.57 1048.82 536.57 1048.82Z" fill="none" stroke="#FF00FF" stroke-width="1"/>
</svg>
